<?xml version="1.0" encoding="UTF-8"?> <!-- Generator: Adobe Illustrator 25.0.0, SVG Export Plug-In . SVG Version: 6.00 Build 0) --> <svg xmlns="http://www.w3.org/2000/svg" xmlns:xlink="http://www.w3.org/1999/xlink" version="1.1" id="Layer_1" x="0px" y="0px" viewBox="0 0 566.5 183.6" style="enable-background:new 0 0 566.5 183.6;" xml:space="preserve"> <style type="text/css"> .st0{fill:#FF7F00;} .st1{enable-background:new ;} </style> <g id="Layer_2_1_"> <g id="Layer_1-2"> <path class="st0" d="M173.9,114.2c2.3,0,4.6,0.1,6.8,0.4c-12.6,49.1-62.6,78.7-111.8,66.1C19.9,168.2-9.7,118.1,2.9,69 S65.5-9.7,114.6,2.9c32.5,8.3,57.8,33.7,66.1,66.1c-16.4,2-32.9-3.2-45.2-14.3c-1.7-2-3.5-3.8-5.4-5.6 c-23.6-21.2-59.9-19.3-81.1,4.3s-19.3,59.9,4.3,81.1s59.9,19.3,81.1-4.3c0.4-0.4,0.7-0.8,1.1-1.3 C146.1,119.4,159.8,114.2,173.9,114.2z"></path> <path class="st0" d="M206.1,91.8c0,12.4-10,22.4-22.4,22.4c-0.9,0-1.8-0.1-2.7-0.2c3.6-14.6,3.6-29.9,0-44.5 c0.9-0.1,1.8-0.2,2.7-0.2C196,69.4,206.1,79.4,206.1,91.8L206.1,91.8z"></path> <g class="st1"> <path class="st0" d="M252.3,43.3c2.8,2.3,4.7,5.3,5.5,9.2h-8.7c-0.6-1.6-1.6-2.8-3-3.7c-1.3-0.9-2.9-1.3-4.7-1.3 c-2.4,0-4.3,0.9-5.8,2.6c-1.5,1.8-2.2,4.1-2.2,7.1c0,2.9,0.7,5.3,2.2,7c1.5,1.7,3.4,2.6,5.8,2.6c1.8,0,3.4-0.4,4.7-1.3 c1.3-0.9,2.3-2.1,3-3.6h8.7c-0.8,3.8-2.7,6.9-5.5,9.2s-6.4,3.4-10.7,3.4c-3.3,0-6.2-0.7-8.7-2.2c-2.5-1.5-4.4-3.5-5.8-6.1 c-1.4-2.6-2-5.6-2-9c0-3.4,0.7-6.4,2-9c1.4-2.6,3.3-4.7,5.8-6.1s5.4-2.2,8.7-2.2C245.9,39.9,249.5,41,252.3,43.3z"></path> </g> <g class="st1"> <path class="st0" d="M279.4,74.2l-7.3-12.8h-1.9v12.8H262V40.2h14c2.7,0,5,0.5,6.8,1.4c1.9,0.9,3.2,2.2,4.2,3.8s1.4,3.5,1.4,5.5 c0,2.5-0.7,4.6-2,6.3c-1.4,1.7-3.3,2.9-5.9,3.6l8.1,13.3H279.4z M270.2,55.7h5.1c1.6,0,2.8-0.4,3.6-1.1c0.8-0.7,1.2-1.8,1.2-3.2 c0-1.3-0.4-2.4-1.2-3.2c-0.8-0.8-2-1.2-3.6-1.2h-5.1V55.7z"></path> </g> <g class="st1"> <path class="st0" d="M300.2,46.8v7.1h11.5v6.2h-11.5v7.5h12.9v6.6H292V40.2h21.1v6.5H300.2z"></path> </g> <g class="st1"> <path class="st0" d="M338.3,68h-12.7l-2.1,6.2h-8.6l12.4-33.7h9.5l12.4,33.7h-8.7L338.3,68z M336.2,61.7L332,49.3l-4.3,12.5 H336.2z"></path> </g> <g class="st1"> <path class="st0" d="M376.3,40.2v6.5H367v27.4h-8.3V46.8h-9.1v-6.5H376.3z"></path> </g> <g class="st1"> <path class="st0" d="M387.4,40.2v33.9h-8.2V40.2H387.4z"></path> </g> <g class="st1"> <path class="st0" d="M399,40.2l8.3,25.5l8.3-25.5h8.8l-11.8,33.9h-10.6l-11.8-33.9H399z"></path> </g> <g class="st1"> <path class="st0" d="M435.2,46.8v7.1h11.5v6.2h-11.5v7.5h12.9v6.6H427V40.2h21.1v6.5H435.2z"></path> </g> <g class="st1"> </g> <g class="st1"> <path class="st0" d="M490.8,40.2v33.9h-8.3V60h-12.9v14.2h-8.2V40.2h8.2v13.2h12.9V40.2H490.8z"></path> </g> <g class="st1"> <path class="st0" d="M503.9,40.2v19.6c0,2.2,0.5,4,1.5,5.1s2.5,1.8,4.4,1.8s3.4-0.6,4.4-1.8c1-1.2,1.5-2.9,1.5-5.1V40.2h8.2v19.6 c0,3.2-0.6,5.9-1.9,8.1c-1.2,2.2-3,3.8-5.1,4.9c-2.2,1.1-4.6,1.7-7.3,1.7c-2.7,0-5.1-0.5-7.2-1.6c-2.1-1.1-3.7-2.7-4.9-4.9 s-1.8-4.9-1.8-8.1V40.2H503.9z"></path> </g> <g class="st1"> <path class="st0" d="M554.2,59.7c1.2,1.5,1.8,3.2,1.8,5.2c0,2.9-1,5.2-2.9,6.8c-1.9,1.6-4.7,2.4-8.3,2.4h-15.8V40.2h15.4 c3.5,0,6.1,0.8,8,2.3c1.9,1.5,2.8,3.6,2.8,6.4c0,2-0.5,3.8-1.6,5.1c-1.1,1.4-2.5,2.2-4.3,2.7C551.3,57.2,553,58.2,554.2,59.7z M537.2,54.1h5.4c2.8,0,4.3-1.2,4.3-3.6c0-2.4-1.5-3.6-4.4-3.6h-5.3V54.1z M547.6,63.8c0-1.2-0.4-2.2-1.2-2.9 c-0.8-0.7-1.9-1-3.4-1h-5.8v7.6h5.9C546,67.5,547.6,66.3,547.6,63.8z"></path> </g> <g class="st1"> <path class="st0" d="M232.1,99.4v16h16.5v3.3h-16.5v16.1h18.3v3.5h-22.6V96h22.6v3.4H232.1z"></path> <path class="st0" d="M294.5,96v3.4h-12.1v38.9h-4.2V99.4h-12V96H294.5z"></path> <path class="st0" d="M343.5,96v42.3h-4.2v-20h-22.9v20h-4.3V96h4.3v18.8h22.9V96H343.5z"></path> <path class="st0" d="M369,96v42.3h-4.3V96H369z"></path> <path class="st0" d="M419.8,98.3c3.1,1.8,5.6,4.4,7.3,7.7c1.8,3.3,2.7,7,2.7,11.2s-0.9,7.9-2.7,11.2c-1.8,3.3-4.2,5.9-7.3,7.7 c-3.1,1.8-6.6,2.8-10.6,2.8s-7.4-0.9-10.6-2.8c-3.1-1.8-5.6-4.4-7.3-7.7c-1.8-3.3-2.7-7-2.7-11.2s0.9-7.9,2.7-11.2 c1.8-3.3,4.2-5.8,7.3-7.7s6.6-2.8,10.6-2.8S416.7,96.5,419.8,98.3z M401,101.6c-2.5,1.4-4.4,3.5-5.8,6.2 c-1.4,2.7-2.1,5.8-2.1,9.4c0,3.6,0.7,6.7,2.1,9.4c1.4,2.7,3.4,4.7,5.8,6.2c2.5,1.4,5.2,2.2,8.3,2.2s5.9-0.7,8.3-2.2 c2.5-1.4,4.4-3.5,5.8-6.2c1.4-2.7,2.1-5.8,2.1-9.4c0-3.6-0.7-6.7-2.1-9.4c-1.4-2.7-3.4-4.7-5.8-6.2c-2.5-1.4-5.2-2.2-8.3-2.2 S403.4,100.1,401,101.6z"></path> <path class="st0" d="M453.8,120.7v17.6h-4.3V96h12.7c4.8,0,8.3,1.1,10.6,3.3c2.3,2.2,3.5,5.2,3.5,9.1c0,3.9-1.2,7-3.6,9.1 s-5.9,3.2-10.5,3.2H453.8z M469.7,114.8c1.6-1.5,2.4-3.6,2.4-6.5c0-2.9-0.8-5.1-2.4-6.6c-1.6-1.5-4.2-2.2-7.9-2.2h-8v17.5h8 C465.5,117.1,468.1,116.3,469.7,114.8z"></path> <path class="st0" d="M499.3,96v42.3H495V96H499.3z"></path> <path class="st0" d="M544.8,128h-19.3l-3.8,10.3h-4.5L532.8,97h4.7l15.6,41.3h-4.6L544.8,128z M543.6,124.6l-8.3-22.8l-8.5,22.8 H543.6z"></path> </g> </g> </g> </svg> 