<?xml version="1.0" encoding="UTF-8"?> <svg xmlns="http://www.w3.org/2000/svg" id="Group_9" data-name="Group 9" width="196.548" height="59.19" viewBox="0 0 196.548 59.19"><path id="Path_11" data-name="Path 11" d="M2551.6,233.151c.077.1.2.077.3.1a2.531,2.531,0,1,1-1.365.018c.132-.039.281-.027.4-.122Z" transform="translate(-2384.418 -233.151)" fill="#e4001e"></path><path id="Path_12" data-name="Path 12" d="M2669.475,351.751c-.017.023-.045.044-.049.069a2.468,2.468,0,0,1-2.212,2.147,2.537,2.537,0,1,1,2.16-3.249c.043.142-.015.306.1.427Z" transform="translate(-2472.927 -321.719)" fill="#e4001e"></path><path id="Path_13" data-name="Path 13" d="M1998.75,322.367q-3.473,0-6.946,0c-.372,0-.321-.045-.342.321a11.411,11.411,0,0,0,.273,3.462c.02.078.044.155.066.233a2.583,2.583,0,0,0,1.855,1.866,7.546,7.546,0,0,0,1.88.305,15.849,15.849,0,0,0,2.935-.109,5.9,5.9,0,0,0,1-.233,1.684,1.684,0,0,0,1.09-1.058,5.027,5.027,0,0,0,.27-1.454c0-.04,0-.081,0-.121.006-.307-.028-.284.306-.285h2.821c.616,0,1.233,0,1.85,0,.114,0,.19.011.191.158a8.923,8.923,0,0,1-.206,2.409,5.041,5.041,0,0,1-2.2,3.014,8.713,8.713,0,0,1-2.915,1.151,20.551,20.551,0,0,1-4.854.38,20.822,20.822,0,0,1-4.153-.439,9.307,9.307,0,0,1-2.115-.724,4.461,4.461,0,0,1-2.146-2.219,11.174,11.174,0,0,1-.832-2.9,33.036,33.036,0,0,1-.289-7.257,16.546,16.546,0,0,1,.7-3.959,5.41,5.41,0,0,1,3.788-3.758,15.215,15.215,0,0,1,3.118-.6,26.525,26.525,0,0,1,4.06-.06,13.9,13.9,0,0,1,3.95.723c.208.076.414.162.615.254a4.668,4.668,0,0,1,2.4,2.416,11.54,11.54,0,0,1,.831,3.028,33.373,33.373,0,0,1,.247,5.235c0,.221-.005.223-.274.223h-6.976Zm-2.564-3.148h2.365c.7,0,1.395,0,2.092,0,.238,0,.241,0,.235-.226-.013-.485-.016-.971-.046-1.454a5.578,5.578,0,0,0-.35-1.745,1.855,1.855,0,0,0-1.136-1.1,5.461,5.461,0,0,0-1.026-.26,15.457,15.457,0,0,0-3.3-.107,6.351,6.351,0,0,0-1.75.335,2.082,2.082,0,0,0-1.354,1.366,10.2,10.2,0,0,0-.4,3.052c0,.1.039.15.144.143.07,0,.141,0,.212,0Z" transform="translate(-1954.026 -292.285)" fill="#e4001e"></path><path id="Path_14" data-name="Path 14" d="M1906.908,318.346h-2.244c-.323,0-.286,0-.291-.273a4.162,4.162,0,0,0-.151-1.017,2.974,2.974,0,0,0-1.843-2.068,4.732,4.732,0,0,0-1.38-.331,9.734,9.734,0,0,0-3.312.206c-.127.033-.251.077-.375.12a2.13,2.13,0,0,0-1.436,1.517,11.175,11.175,0,0,0-.358,2.118,36.526,36.526,0,0,0-.059,5.03,14.821,14.821,0,0,0,.352,2.578,2.377,2.377,0,0,0,1.843,1.879,8.528,8.528,0,0,0,1.7.279,14.469,14.469,0,0,0,2.695-.05,4.924,4.924,0,0,0,1.232-.3,1.67,1.67,0,0,0,.969-.985,6.329,6.329,0,0,0,.359-1.837c.023-.3.028-.606.041-.909.01-.253.009-.256.276-.256h4.58c.26,0,.256,0,.264.268a18.039,18.039,0,0,1-.141,1.934c-.038.493-.1.985-.147,1.478a4.1,4.1,0,0,1-1.214,2.545,6.115,6.115,0,0,1-2.421,1.454,12.981,12.981,0,0,1-2.806.615,25.756,25.756,0,0,1-4.27.113,14.531,14.531,0,0,1-4.4-.779c-.2-.073-.394-.157-.587-.245a4.744,4.744,0,0,1-2.472-2.508,12,12,0,0,1-.837-3.09,31.875,31.875,0,0,1-.228-6.353,17.346,17.346,0,0,1,.707-4.356,10.051,10.051,0,0,1,.366-.962,4.978,4.978,0,0,1,2.639-2.633,10.408,10.408,0,0,1,2.823-.778,26.18,26.18,0,0,1,6.292-.053,13.311,13.311,0,0,1,2.723.567,4.639,4.639,0,0,1,3.185,3.258,12.66,12.66,0,0,1,.492,3.621c0,.157-.045.208-.2.207C1908.485,318.342,1907.7,318.346,1906.908,318.346Z" transform="translate(-1880.552 -292.358)" fill="#e4001e"></path><path id="Path_15" data-name="Path 15" d="M2302.12,284.32v-11.4c0-.061,0-.121,0-.182,0-.25,0-.252.246-.253.586,0,1.173,0,1.759,0,.324,0,.647,0,.971,0,.125,0,.192.035.18.172-.006.07,0,.141,0,.212q0,14.94,0,29.88c0,.423.079.386-.384.387q-1.259,0-2.518,0c-.25,0-.256,0-.243-.247.039-.757.084-1.514.125-2.271a.533.533,0,0,0-.006-.239c-.07-.031-.089.027-.109.067a5.044,5.044,0,0,1-3.048,2.475,10.125,10.125,0,0,1-2.522.483,16.229,16.229,0,0,1-3.6-.114,8.268,8.268,0,0,1-2.9-.926,5.062,5.062,0,0,1-2.211-2.531,12.2,12.2,0,0,1-.78-2.856,33.035,33.035,0,0,1-.287-6.805,17.3,17.3,0,0,1,.648-4.152,8.579,8.579,0,0,1,.635-1.569,5.28,5.28,0,0,1,3.031-2.511,10.182,10.182,0,0,1,2.787-.543,17.4,17.4,0,0,1,3.6.117,8.3,8.3,0,0,1,2.495.711,3.919,3.919,0,0,1,2.023,2.04.355.355,0,0,0,.053.069Zm-12.067,7.876a30.324,30.324,0,0,0,.244,4.051,9.715,9.715,0,0,0,.545,2.23,3.165,3.165,0,0,0,1.718,1.785,6.037,6.037,0,0,0,1.777.477,13.236,13.236,0,0,0,3.625-.058,5.757,5.757,0,0,0,1.921-.618,2.986,2.986,0,0,0,1.345-1.469,7.3,7.3,0,0,0,.412-1.3,18.132,18.132,0,0,0,.386-3.093,28.972,28.972,0,0,0-.145-5.657,7.9,7.9,0,0,0-.652-2.291,3.307,3.307,0,0,0-1.437-1.511,5.817,5.817,0,0,0-1.653-.57,12.834,12.834,0,0,0-3.351-.164,7.035,7.035,0,0,0-1.982.4,3.286,3.286,0,0,0-2.093,2.118,10.775,10.775,0,0,0-.476,2.154A27.219,27.219,0,0,0,2290.053,292.2Z" transform="translate(-2183.963 -263.248)" fill="#2d2d2f"></path><path id="Path_16" data-name="Path 16" d="M2202.209,284.382a.8.8,0,0,0,.046-.382q0-5.566,0-11.131c0-.071.005-.142,0-.212-.012-.138.059-.172.182-.171.93,0,1.86,0,2.791,0,.155,0,.2.063.183.2-.005.06,0,.121,0,.182q0,14.953,0,29.906c0,.414.057.362-.376.364-.829,0-1.658,0-2.487,0-.321,0-.288,0-.269-.3.051-.787.093-1.574.137-2.361a.441.441,0,0,0-.012-.085.067.067,0,0,0-.1.033,5.241,5.241,0,0,1-3.527,2.64,13.233,13.233,0,0,1-3.937.382,12.324,12.324,0,0,1-3.111-.45q-.406-.12-.8-.28a5.158,5.158,0,0,1-2.945-2.929,12.841,12.841,0,0,1-.781-2.949,32.867,32.867,0,0,1-.288-6.17,19.082,19.082,0,0,1,.588-4.345,11.273,11.273,0,0,1,.406-1.2,5.334,5.334,0,0,1,3.337-3.173,10.074,10.074,0,0,1,2.7-.538,17.047,17.047,0,0,1,4.05.166,8.622,8.622,0,0,1,1.523.392A4.234,4.234,0,0,1,2202.209,284.382Zm.031,7.708a23.026,23.026,0,0,0-.178-3.3,9.048,9.048,0,0,0-.595-2.34,3.418,3.418,0,0,0-1.849-1.866,5.594,5.594,0,0,0-.623-.234,11.667,11.667,0,0,0-4.205-.33,7.24,7.24,0,0,0-1.516.279,3.4,3.4,0,0,0-2.483,2.421c-.009.029-.014.059-.023.088a13.584,13.584,0,0,0-.524,3.5,34.231,34.231,0,0,0,.169,5.72,10.6,10.6,0,0,0,.537,2.356,3.222,3.222,0,0,0,1.886,1.933,7.009,7.009,0,0,0,2.24.48,14.118,14.118,0,0,0,2.6-.057,7.273,7.273,0,0,0,1.933-.477,3.186,3.186,0,0,0,1.874-1.943,10.867,10.867,0,0,0,.509-2.208A32.221,32.221,0,0,0,2202.24,292.09Z" transform="translate(-2107.56 -263.245)" fill="#2d2d2f"></path><path id="Path_17" data-name="Path 17" d="M2101.561,321.119c0-.19,0-.36,0-.529-.012-1.2.04-2.406-.055-3.608a9.49,9.49,0,0,0-.406-2.229,2.443,2.443,0,0,0-1.651-1.638,7.809,7.809,0,0,0-1.779-.353,16.175,16.175,0,0,0-3.54.055,7.027,7.027,0,0,0-2.013.532,3.593,3.593,0,0,0-.848.524,2.573,2.573,0,0,0-.917,1.971,5.271,5.271,0,0,0,.017.576c.009.12-.032.167-.15.159-.081-.005-.162,0-.243,0-.839,0-1.678,0-2.517,0-.141,0-.221-.016-.218-.193a9.59,9.59,0,0,1,.487-3.128,3.659,3.659,0,0,1,2.34-2.329,11.263,11.263,0,0,1,2.45-.537,28.309,28.309,0,0,1,4.724-.115,14.323,14.323,0,0,1,3.932.658,4.682,4.682,0,0,1,1.958,1.168,5.164,5.164,0,0,1,1.16,2.17,11.815,11.815,0,0,1,.417,2.993c.019.687.01,1.375.01,2.062q0,6.172,0,12.344c0,.36.065.342-.338.342q-1.274,0-2.548,0c-.282,0-.28,0-.247-.29q.108-.949.211-1.9c0-.036.018-.077-.021-.106-.05-.007-.072.028-.1.061a5.556,5.556,0,0,1-2.852,1.954,11.949,11.949,0,0,1-3,.549,17.856,17.856,0,0,1-3.27-.057,9.787,9.787,0,0,1-2.837-.717,5.235,5.235,0,0,1-3.235-4.028,10.251,10.251,0,0,1,.267-4.887,4.315,4.315,0,0,1,2.893-2.985,11.873,11.873,0,0,1,2.511-.54,23.245,23.245,0,0,1,3.513-.114,13.184,13.184,0,0,1,3.555.533,5.084,5.084,0,0,1,1.312.615,2.9,2.9,0,0,1,.868.877C2101.433,321.029,2101.445,321.1,2101.561,321.119Zm-6.211.284c-.7.011-1.444.015-2.188.1a7.908,7.908,0,0,0-1.921.4,2.022,2.022,0,0,0-1.211,1.156,3.726,3.726,0,0,0-.173.483,8.372,8.372,0,0,0-.151,3.1,4.724,4.724,0,0,0,.33,1.317,2.2,2.2,0,0,0,1.278,1.26,5.516,5.516,0,0,0,.75.233,12.516,12.516,0,0,0,2.647.264,14.938,14.938,0,0,0,3.375-.267,6.061,6.061,0,0,0,2.128-.835,3.054,3.054,0,0,0,1.386-1.949,5.546,5.546,0,0,0-.283-3.271,2.442,2.442,0,0,0-1.38-1.373,6.1,6.1,0,0,0-1.128-.338A17.85,17.85,0,0,0,2095.351,321.4Z" transform="translate(-2030.606 -292.127)" fill="#2d2d2f"></path><path id="Path_18" data-name="Path 18" d="M2430.881,332.338a28.788,28.788,0,0,1-4.139-.288,12.343,12.343,0,0,1-1.939-.471,4.182,4.182,0,0,1-2.9-3.285,7.532,7.532,0,0,1-.189-1.622c0-.435.007-.87.006-1.3,0-.122.026-.184.167-.184q1.471.007,2.942,0c.135,0,.172.05.172.178,0,.505.009,1.011.052,1.515a4.039,4.039,0,0,0,.241,1.09,2.1,2.1,0,0,0,1.284,1.285,6.737,6.737,0,0,0,1.713.366,25.832,25.832,0,0,0,4.573-.007,10.306,10.306,0,0,0,1.76-.3,2.4,2.4,0,0,0,1.858-1.908,6.1,6.1,0,0,0,.025-2.824,2.525,2.525,0,0,0-2.487-2.053c-.8-.041-1.6-.038-2.4-.054a34.811,34.811,0,0,1-4.68-.375,13.566,13.566,0,0,1-1.887-.432,4.049,4.049,0,0,1-2.856-2.988,9.754,9.754,0,0,1-.27-3.247,8.355,8.355,0,0,1,.334-1.936,3.653,3.653,0,0,1,2.483-2.565,11.93,11.93,0,0,1,2.155-.474,29.753,29.753,0,0,1,5.327-.178,12.277,12.277,0,0,1,4.167.838,5.559,5.559,0,0,1,1.52.926,4.068,4.068,0,0,1,1.389,2.742c.042.4.026.808.03,1.212,0,.129-.039.186-.174.176s-.242,0-.364,0H2436.5c-.349,0-.317.013-.322-.3a5.249,5.249,0,0,0-.2-1.436,3.006,3.006,0,0,0-.15-.4,1.421,1.421,0,0,0-.9-.8,7.962,7.962,0,0,0-1.759-.3,35.449,35.449,0,0,0-4.031-.057,11.528,11.528,0,0,0-2.372.294,1.706,1.706,0,0,0-1.325,1.277,5.761,5.761,0,0,0-.045,3.055,2.7,2.7,0,0,0,2.376,2.041,12.076,12.076,0,0,0,1.39.107c1.715.095,3.432.169,5.148.26a8,8,0,0,1,2.138.4,4.767,4.767,0,0,1,3.29,3.609,9.306,9.306,0,0,1,.208,2.86,7.924,7.924,0,0,1-.436,2.221,4.058,4.058,0,0,1-2.36,2.458,10.644,10.644,0,0,1-2.516.643A28.1,28.1,0,0,1,2430.881,332.338Z" transform="translate(-2287.237 -292.127)" fill="#2d2d2f"></path><path id="Path_19" data-name="Path 19" d="M1855.3,322.358q0,5.187,0,10.373c0,.377.051.335-.341.335q-2.229,0-4.459,0c-.061,0-.121,0-.182,0-.111.005-.172-.035-.164-.156,0-.07,0-.141,0-.212q0-10.358,0-20.716c0-.407-.055-.364.378-.364q2.2,0,4.4,0c.071,0,.142,0,.212,0,.115-.008.168.035.159.155-.006.08,0,.162,0,.242Q1855.3,317.187,1855.3,322.358Z" transform="translate(-1849.915 -293.187)" fill="#e4001e"></path><path id="Path_20" data-name="Path 20" d="M2392.264,322.32q0,5.2,0,10.4c0,.345.066.339-.344.339-.859,0-1.719,0-2.578,0-.231,0-.231,0-.236-.233,0-.04,0-.081,0-.121q0-10.372,0-20.743c0-.42-.06-.364.371-.365.829,0,1.658,0,2.487,0,.3,0,.3,0,.3.292q0,2.532,0,5.064Z" transform="translate(-2262.285 -293.171)" fill="#2d2d2f"></path><path id="Path_21" data-name="Path 21" d="M2383.669,275.869a2.773,2.773,0,1,1,2.78,2.766A2.764,2.764,0,0,1,2383.669,275.869Z" transform="translate(-2258.127 -263.706)" fill="#2d2d2f"></path><path id="Path_22" data-name="Path 22" d="M1851.935,273.11a2.77,2.77,0,1,1-.038,5.541,2.77,2.77,0,0,1,.038-5.541Z" transform="translate(-1849.153 -263.724)" fill="#e4001e"></path><path id="Path_23" data-name="Path 23" d="M2509.776,415.789a2.54,2.54,0,1,1-2.513-2.551A2.556,2.556,0,0,1,2509.776,415.789Z" transform="translate(-2350.729 -370.94)" fill="#e4001e"></path><path id="Path_24" data-name="Path 24" d="M2618.521,351.47a2.54,2.54,0,1,1-2.531-2.562A2.55,2.55,0,0,1,2618.521,351.47Z" transform="translate(-2433.933 -321.72)" fill="#e4001e"></path><path id="Path_25" data-name="Path 25" d="M2507.249,283.542a2.539,2.539,0,1,1-2.552,2.538A2.551,2.551,0,0,1,2507.249,283.542Z" transform="translate(-2350.729 -271.707)" fill="#e4001e"></path><path id="Path_26" data-name="Path 26" d="M2644.378,351.442a2.539,2.539,0,1,1-2.528-2.535A2.549,2.549,0,0,1,2644.378,351.442Z" transform="translate(-2453.718 -321.719)" fill="#e4001e"></path><path id="Path_27" data-name="Path 27" d="M2576.743,402.615a2.535,2.535,0,1,1-2.546-2.543A2.539,2.539,0,0,1,2576.743,402.615Z" transform="translate(-2401.975 -360.867)" fill="#e4001e"></path><path id="Path_28" data-name="Path 28" d="M2576.743,299.249a2.535,2.535,0,1,1-2.54-2.544A2.54,2.54,0,0,1,2576.743,299.249Z" transform="translate(-2401.974 -281.778)" fill="#e4001e"></path><path id="Path_29" data-name="Path 29" d="M2593.767,286.083a2.534,2.534,0,1,1,2.521,2.535A2.536,2.536,0,0,1,2593.767,286.083Z" transform="translate(-2418.879 -271.707)" fill="#e4001e"></path><path id="Path_30" data-name="Path 30" d="M2553.783,389.2a2.533,2.533,0,1,1-2.515-2.543A2.532,2.532,0,0,1,2553.783,389.2Z" transform="translate(-2384.411 -350.6)" fill="#e4001e"></path><path id="Path_31" data-name="Path 31" d="M2553.783,312.655a2.533,2.533,0,1,1-2.52-2.531A2.534,2.534,0,0,1,2553.783,312.655Z" transform="translate(-2384.41 -292.045)" fill="#e4001e"></path><path id="Path_32" data-name="Path 32" d="M2593.766,415.755a2.534,2.534,0,1,1,2.525,2.562A2.543,2.543,0,0,1,2593.766,415.755Z" transform="translate(-2418.879 -370.942)" fill="#e4001e"></path><path id="Path_33" data-name="Path 33" d="M2606.02,328.475a2.531,2.531,0,1,1-2.522-2.534A2.535,2.535,0,0,1,2606.02,328.475Z" transform="translate(-2424.381 -304.147)" fill="#e4001e"></path><path id="Path_34" data-name="Path 34" d="M2592.59,351.435a2.533,2.533,0,1,1-2.53-2.526A2.534,2.534,0,0,1,2592.59,351.435Z" transform="translate(-2414.103 -321.721)" fill="#e4001e"></path><path id="Path_35" data-name="Path 35" d="M2614.123,395.423a2.53,2.53,0,1,1,2.493,2.555A2.529,2.529,0,0,1,2614.123,395.423Z" transform="translate(-2434.454 -355.387)" fill="#e4001e"></path><path id="Path_36" data-name="Path 36" d="M2553.783,260.881a2.533,2.533,0,1,1-2.533-2.549A2.528,2.528,0,0,1,2553.783,260.881Z" transform="translate(-2384.411 -252.418)" fill="#e4001e"></path><path id="Path_37" data-name="Path 37" d="M2616.653,308.956a2.531,2.531,0,1,1,2.53-2.514A2.517,2.517,0,0,1,2616.653,308.956Z" transform="translate(-2434.454 -287.279)" fill="#e4001e"></path><path id="Path_38" data-name="Path 38" d="M2551.26,417.7a2.531,2.531,0,1,1,2.523-2.524A2.521,2.521,0,0,1,2551.26,417.7Z" transform="translate(-2384.41 -370.479)" fill="#e4001e"></path><path id="Path_39" data-name="Path 39" d="M2551.29,284.195a2.533,2.533,0,1,1-2.572,2.508A2.525,2.525,0,0,1,2551.29,284.195Z" transform="translate(-2384.411 -272.206)" fill="#e4001e"></path><path id="Path_40" data-name="Path 40" d="M2606.018,373.378a2.531,2.531,0,1,1-2.512-2.537A2.526,2.526,0,0,1,2606.018,373.378Z" transform="translate(-2424.381 -338.502)" fill="#e4001e"></path><path id="Path_41" data-name="Path 41" d="M2531.877,402.628a2.531,2.531,0,1,1-2.531-2.556A2.534,2.534,0,0,1,2531.877,402.628Z" transform="translate(-2367.652 -360.867)" fill="#e4001e"></path><path id="Path_42" data-name="Path 42" d="M2531.876,299.238a2.531,2.531,0,1,1-2.521-2.528A2.529,2.529,0,0,1,2531.876,299.238Z" transform="translate(-2367.652 -281.782)" fill="#e4001e"></path><path id="Path_43" data-name="Path 43" d="M2551.256,443.551a2.531,2.531,0,1,1,2.527-2.552A2.525,2.525,0,0,1,2551.256,443.551Z" transform="translate(-2384.41 -390.261)" fill="#e4001e"></path><path id="Path_44" data-name="Path 44" d="M2553.783,466.094a2.533,2.533,0,1,1-2.52-2.53A2.538,2.538,0,0,1,2553.783,466.094Z" transform="translate(-2384.41 -409.447)" fill="#e4001e"></path></svg> 